<?xml version="1.0" standalone="no"?>
<!DOCTYPE svg PUBLIC "-//W3C//DTD SVG 20010904//EN"
 "http://www.w3.org/TR/2001/REC-SVG-20010904/DTD/svg10.dtd">
<svg version="1.0" xmlns="http://www.w3.org/2000/svg"
 width="2362.000000pt" height="1939.000000pt" viewBox="0 0 2362.000000 1939.000000"
 preserveAspectRatio="xMidYMid meet">

<g transform="translate(0.000000,1939.000000) scale(0.100000,-0.100000)"
fill="#000000" stroke="none">
<path d="M16645 19383 c-755 -40 -1805 -278 -2841 -644 -1979 -698 -3887
-1763 -4924 -2748 l-95 -90 453 -1 453 0 160 120 c666 501 1720 1081 2824
1555 1476 634 2837 1007 3800 1042 l170 6 60 42 c80 57 212 195 263 274 116
179 114 327 -6 418 -43 33 -44 33 -150 31 -59 -1 -134 -3 -167 -5z"/>
<path d="M18935 19346 c-125 -59 -222 -168 -274 -306 -19 -52 -24 -85 -25
-160 0 -86 2 -101 30 -160 50 -105 53 -107 179 -120 980 -98 1850 -643 2442
-1530 352 -528 563 -1111 645 -1780 20 -160 16 -815 -6 -1050 -41 -447 -115
-818 -248 -1245 -42 -135 -51 -176 -55 -265 -6 -113 2 -144 46 -184 31 -28
119 -18 202 23 64 31 68 35 121 129 404 710 585 2090 423 3222 -263 1834
-1378 3023 -3205 3419 -213 46 -197 45 -275 7z"/>
<path d="M5790 13940 l0 -1740 2140 0 2140 0 0 -2030 0 -2030 -2140 0 -2140 0
0 -1735 0 -1735 6023 2 6022 3 0 1730 0 1730 -2142 3 -2143 2 0 2030 0 2030
2145 0 2145 0 -2 1738 -3 1737 -6022 3 -6023 2 0 -1740z"/>
<path d="M2732 12920 l-2733 -2752 1999 -2006 c1100 -1104 2330 -2340 2735
-2747 l736 -740 1 1888 0 1887 2145 0 2145 0 0 1720 0 1720 -2145 0 -2145 0
-2 1890 -3 1891 -2733 -2751z"/>
<path d="M18150 13780 l0 -1890 -2145 0 -2145 0 0 -1720 0 -1720 2145 0 2145
0 2 -1886 3 -1887 2730 2743 c1502 1508 2730 2745 2730 2749 0 7 -5454 5501
-5461 5501 -2 0 -4 -850 -4 -1890z"/>
<path d="M2024 7661 c-88 -54 -276 -369 -424 -711 -246 -568 -428 -1221 -519
-1856 -109 -753 -88 -1423 65 -2134 123 -572 372 -1094 731 -1526 102 -125
368 -386 493 -485 656 -521 1463 -824 2470 -926 219 -22 983 -25 1265 -5 1990
143 4049 751 6215 1834 1064 532 2040 1117 3020 1812 264 187 936 694 1005
757 5 5 -176 9 -430 9 l-440 0 -210 -151 c-2594 -1864 -6044 -3248 -8705
-3493 -457 -42 -1063 -54 -1370 -28 -704 61 -1262 207 -1768 461 -541 272
-852 559 -1157 1066 -282 468 -457 1032 -521 1675 -32 322 -23 798 22 1185 49
417 158 927 289 1350 190 612 265 879 265 945 0 60 -21 110 -67 161 -69 76
-163 101 -229 60z"/>
</g>
</svg>
